<svg width="20" height="20" viewBox="0 0 20 20" fill="none" xmlns="http://www.w3.org/2000/svg">
<path d="M2.78834 6.97874C2.61379 6.1536 2.38857 5.10833 2.21758 4.29209C2.09606 3.71199 2.50248 3.16207 3.09172 3.0983C3.60855 3.04236 4.0846 3.38454 4.19629 3.89224L4.78351 6.5614C4.90331 7.10598 4.5612 7.64518 4.01747 7.76876C3.4602 7.89541 2.90661 7.53784 2.78834 6.97874Z" stroke="black" stroke-width="1.25"/>
<path d="M5.59942 15.8846L13.8858 14.8981C14.6825 14.8032 15.4207 15.3295 15.5908 16.1136C15.8012 17.0836 15.0623 18 14.0698 18H7.59942C6.49485 18 5.59942 17.1046 5.59942 16V15.8846ZM5.59942 15.8846L3.65448 9.98518C3.33204 9.00714 4.06048 7.99999 5.0903 7.99999C5.68744 8 6.22863 8.35148 6.47146 8.89701L8.27816 12.9558C8.82598 14.1865 8.02512 15.5958 6.68745 15.7551L5.59942 15.8846Z" stroke="black" stroke-width="1.25"/>
<path d="M9.96476 9.29716L9.16036 6.86074C8.54838 5.00716 9.72247 3.04187 11.6447 2.70224C13.2655 2.41587 14.8396 3.4045 15.2854 4.9889L15.9804 7.45876C16.4695 9.19701 15.3982 10.9893 13.6355 11.3816C12.0582 11.7327 10.4714 10.8316 9.96476 9.29716Z" stroke="black" stroke-width="1.25"/>
</svg>