<svg width="20" height="20" viewBox="0 0 20 20" fill="none" xmlns="http://www.w3.org/2000/svg">
<path d="M6.66675 13.3332V9.99984C6.66675 9.11578 7.01794 8.26794 7.64306 7.64281C8.26818 7.01769 9.11603 6.6665 10.0001 6.6665C10.8841 6.6665 11.732 7.01769 12.3571 7.64281C12.9822 8.26794 13.3334 9.11578 13.3334 9.99984V13.3332" stroke="black" stroke-width="1.25" stroke-linecap="round" stroke-linejoin="round"/>
<path d="M2.5 10H3.33333M10 2.5V3.33333M16.6667 10H17.5M4.66667 4.66667L5.25 5.25M15.3333 4.66667L14.75 5.25" stroke="black" stroke-width="1.25" stroke-linecap="round" stroke-linejoin="round"/>
<path d="M14.1667 13.3335H5.83333C5.3731 13.3335 5 13.7066 5 14.1668V15.8335C5 16.2937 5.3731 16.6668 5.83333 16.6668H14.1667C14.6269 16.6668 15 16.2937 15 15.8335V14.1668C15 13.7066 14.6269 13.3335 14.1667 13.3335Z" stroke="black" stroke-width="1.25" stroke-linecap="round" stroke-linejoin="round"/>
</svg>