<svg width="20" height="20" viewBox="0 0 20 20" fill="none" xmlns="http://www.w3.org/2000/svg">
<path d="M10.0002 1.66699V7.08366L12.5002 8.51699M8.3335 3.33366L10.0002 4.16699L11.6668 3.33366H8.3335Z" stroke="black" stroke-width="1.25" stroke-linecap="round" stroke-linejoin="round"/>
<path d="M17.2166 5.83351L12.5257 8.54185L12.5344 11.4236M14.9399 5.22347L15.0516 7.08351L16.6066 8.11022L14.9399 5.22347Z" stroke="black" stroke-width="1.25" stroke-linecap="round" stroke-linejoin="round"/>
<path d="M17.217 14.167L12.526 11.4587L10.0347 12.9071M16.6069 11.8903L15.0519 12.917L14.9403 14.7771L16.6069 11.8903Z" stroke="black" stroke-width="1.25" stroke-linecap="round" stroke-linejoin="round"/>
<path d="M9.99984 18.333V12.9163L7.49984 11.483M11.6665 16.6663L9.99984 15.833L8.33317 16.6663H11.6665Z" stroke="black" stroke-width="1.25" stroke-linecap="round" stroke-linejoin="round"/>
<path d="M2.78337 14.167L7.47434 11.4586L7.46564 8.57691M5.06008 14.777L4.94843 12.917L3.39341 11.8903L5.06008 14.777Z" stroke="black" stroke-width="1.25" stroke-linecap="round" stroke-linejoin="round"/>
<path d="M2.78304 5.83348L7.47401 8.54181L9.96532 7.09342M3.39308 8.11019L4.9481 7.08348L5.05975 5.22344L3.39308 8.11019Z" stroke="black" stroke-width="1.25" stroke-linecap="round" stroke-linejoin="round"/>
</svg>