<svg width="20" height="20" viewBox="0 0 20 20" fill="none" xmlns="http://www.w3.org/2000/svg">
<path d="M6.11111 11.769C6.4058 11.769 6.68841 11.9007 6.89679 12.1352C7.10516 12.3696 7.22222 12.6875 7.22222 13.019V13.269H12.7778V13.019C12.7778 12.6875 12.8948 12.3696 13.1032 12.1352C13.3116 11.9007 13.5942 11.769 13.8889 11.769C14.1836 11.769 14.4662 11.9007 14.6746 12.1352C14.8829 12.3696 15 12.6875 15 13.019V14.519C15 14.8506 14.8829 15.1685 14.6746 15.4029C14.4662 15.6373 14.1836 15.769 13.8889 15.769H6.11111C5.81643 15.769 5.53381 15.6373 5.32544 15.4029C5.11706 15.1685 5 14.8506 5 14.519V13.019C5 12.6875 5.11706 12.3696 5.32544 12.1352C5.53381 11.9007 5.81643 11.769 6.11111 11.769Z" stroke="black" stroke-width="1.25" stroke-linecap="round" stroke-linejoin="round"/>
<path d="M6.5 11.769V7.0651C6.5 6.58875 6.65804 6.13192 6.93934 5.79509C7.22064 5.45827 7.60218 5.26904 8 5.26904H12C12.3978 5.26904 12.7794 5.45827 13.0607 5.79509C13.342 6.13192 13.5 6.58875 13.5 7.0651V11.769" stroke="black" stroke-width="1.25" stroke-linecap="round" stroke-linejoin="round"/>
<path d="M8.5 3.76953V2.68401C8.5 2.57408 8.56773 2.46866 8.68829 2.39093C8.80885 2.3132 8.97236 2.26953 9.14286 2.26953H10.8571C11.0276 2.26953 11.1912 2.3132 11.3117 2.39093C11.4323 2.46866 11.5 2.57408 11.5 2.68401V3.76953" stroke="black" stroke-width="1.25" stroke-linecap="round" stroke-linejoin="round"/>
<path d="M6.5 15.769V17.269" stroke="black" stroke-width="1.25" stroke-linecap="round" stroke-linejoin="round"/>
<path d="M13.5 15.769V17.269" stroke="black" stroke-width="1.25" stroke-linecap="round" stroke-linejoin="round"/>
</svg>