<svg width="20" height="20" viewBox="0 0 20 20" fill="none" xmlns="http://www.w3.org/2000/svg">
<g id="Blindado" clip-path="url(#clip0_723_38612)">
<path id="Vector" d="M9.99978 2.5C11.9463 4.22215 14.4868 5.11881 17.0831 5C17.4611 6.28585 17.5768 7.63456 17.4232 8.96598C17.2697 10.2974 16.85 11.5844 16.1893 12.7504C15.5285 13.9165 14.6401 14.9378 13.5768 15.7537C12.5135 16.5696 11.2971 17.1635 9.99978 17.5C8.70246 17.1635 7.48601 16.5696 6.42274 15.7537C5.35946 14.9378 4.47104 13.9165 3.81028 12.7504C3.14952 11.5844 2.72989 10.2974 2.57634 8.96598C2.42279 7.63456 2.53845 6.28585 2.91645 5C5.51272 5.11881 8.05326 4.22215 9.99978 2.5" stroke="#141414" stroke-width="1.25" stroke-linecap="round" stroke-linejoin="round"/>
<path id="Vector_2" d="M15 6.875C13.2667 6.9542 11.2995 6.1481 10 5V15C10.8661 14.7757 11.6782 14.3798 12.3881 13.8358C13.098 13.2919 13.6911 12.611 14.1322 11.8336C14.5734 11.0563 14.8535 10.1983 14.956 9.31066C15.0586 8.42304 15.2524 7.73223 15 6.875Z" fill="black" stroke="black" stroke-width="0.5" stroke-linecap="round" stroke-linejoin="round"/>
</g>
<defs>
<clipPath id="clip0_723_38612">
<rect width="20" height="20" fill="white"/>
</clipPath>
</defs>
</svg>