<svg width="40" height="40" viewBox="0 0 40 40" fill="none" xmlns="http://www.w3.org/2000/svg">
<g clip-path="url(#clip0_4759_54844)">
<path d="M23.7502 18.1517H25.4169C26.301 18.1517 27.1488 18.4952 27.7739 19.1068C28.3991 19.7183 28.7502 20.5477 28.7502 21.4126V26.3039C28.7502 26.9525 29.0136 27.5746 29.4825 28.0332C29.9513 28.4918 30.5872 28.7495 31.2502 28.7495C31.9133 28.7495 32.5492 28.4918 33.018 28.0332C33.4868 27.5746 33.7502 26.9525 33.7502 26.3039V14.8908L28.7502 9.99951" stroke="black" stroke-width="2.51138" stroke-linecap="round" stroke-linejoin="round"/>
<path d="M6.25024 33.7495V9.68701C6.25024 8.77533 6.61899 7.90099 7.27537 7.25633C7.93175 6.61168 8.82199 6.24951 9.75024 6.24951H20.2502C21.1785 6.24951 22.0687 6.61168 22.7251 7.25633C23.3815 7.90099 23.7502 8.77533 23.7502 9.68701V33.7495" stroke="black" stroke-width="2.51138" stroke-linecap="round" stroke-linejoin="round"/>
<path d="M4.99976 33.7495H24.9998" stroke="black" stroke-width="2.51138" stroke-linecap="round" stroke-linejoin="round"/>
<path d="M30.0002 11.25V13.125C30.0002 13.6223 30.1978 14.0992 30.5494 14.4508C30.901 14.8025 31.378 15 31.8752 15H33.7502" stroke="#141414" stroke-width="2.51138" stroke-linecap="round" stroke-linejoin="round"/>
<path d="M6.25024 21.9995H23.7502" stroke="#141414" stroke-width="2.51138" stroke-linecap="round" stroke-linejoin="round"/>
<path d="M10.9248 16.2174C10.5806 16.2174 10.285 16.1606 10.0378 16.047C9.79052 15.9301 9.5884 15.7781 9.43138 15.591C9.27435 15.4039 9.15909 15.2001 9.08559 14.9796C9.01209 14.7591 8.97534 14.5436 8.97534 14.3331V14.2229C8.97534 13.9957 9.01376 13.7719 9.0906 13.5514C9.16744 13.3275 9.28271 13.1254 9.43639 12.945C9.59341 12.7646 9.78885 12.6209 10.0227 12.514C10.2566 12.4038 10.5305 12.3486 10.8446 12.3486C11.182 12.3486 11.4794 12.4104 11.7366 12.5341C11.9972 12.6577 12.206 12.8297 12.363 13.0502C12.52 13.2674 12.6119 13.5196 12.6386 13.8069H11.7065C11.6865 13.6967 11.638 13.5981 11.5612 13.5113C11.4844 13.4211 11.3841 13.3509 11.2605 13.3008C11.1403 13.2473 11.0016 13.2206 10.8446 13.2206C10.6942 13.2206 10.5606 13.2473 10.4437 13.3008C10.3301 13.3509 10.2332 13.4244 10.153 13.5213C10.0762 13.6148 10.0177 13.7268 9.97761 13.8571C9.93752 13.9873 9.91748 14.1293 9.91748 14.283C9.91748 14.4367 9.93919 14.5804 9.98263 14.714C10.0261 14.8443 10.0895 14.9596 10.1731 15.0598C10.2566 15.1567 10.3618 15.2318 10.4888 15.2853C10.6157 15.3387 10.7611 15.3655 10.9248 15.3655C11.1319 15.3655 11.3106 15.322 11.461 15.2352C11.6113 15.1483 11.7166 15.0331 11.7767 14.8894L11.7065 15.4406V14.6438H12.5585V15.3955C12.4048 15.6595 12.186 15.8633 11.902 16.0069C11.6213 16.1472 11.2956 16.2174 10.9248 16.2174ZM10.8245 14.8242V14.1728H12.8591V14.8242H10.8245Z" fill="#141414"/>
<path d="M13.3303 16.1172V12.4589H14.8587L16.0765 15.3755H16.2519L16.1517 15.4657V12.4589H17.0236V16.1172H15.4851L14.2674 13.2006H14.092L14.1922 13.1104V16.1172H13.3303Z" fill="#141414"/>
<path d="M18.5559 16.1172L17.4935 12.4589H18.4557L19.2525 15.4607L19.0771 15.3755H19.5582L19.3778 15.4607L20.1195 12.4589H21.0516L20.0593 16.1172H18.5559Z" fill="#141414"/>
</g>
<defs>
<clipPath id="clip0_4759_54844">
<rect width="40" height="40" fill="white"/>
</clipPath>
</defs>
</svg>