<svg width="20" height="20" viewBox="0 0 20 20" fill="none" xmlns="http://www.w3.org/2000/svg">
<path d="M2.64 7.17391L2 12.8261C2 15 3.27984 15 4.88 15H15.44C16.72 15 18 15 18 12.8261C18 11.5037 17.68 8.91304 17.36 7.17391C17.12 5.86957 16.72 5 15.44 5H4.88C2.96 5 2.96 5.43478 2.64 7.17391Z" stroke="black" stroke-width="1.25" stroke-linecap="round" stroke-linejoin="round"/>
<path d="M6 13C6.55228 13 7 12.5523 7 12C7 11.4477 6.55228 11 6 11C5.44772 11 5 11.4477 5 12C5 12.5523 5.44772 13 6 13Z" fill="black"/>
<path d="M14 13C14.5523 13 15 12.5523 15 12C15 11.4477 14.5523 11 14 11C13.4477 11 13 11.4477 13 12C13 12.5523 13.4477 13 14 13Z" fill="black"/>
</svg>