<svg width="20" height="20" viewBox="0 0 20 20" fill="none" xmlns="http://www.w3.org/2000/svg">
<path d="M10.0002 12.4998C10.9206 12.4998 11.6668 11.7536 11.6668 10.8332C11.6668 9.9127 10.9206 9.1665 10.0002 9.1665C9.07969 9.1665 8.3335 9.9127 8.3335 10.8332C8.3335 11.7536 9.07969 12.4998 10.0002 12.4998Z" stroke="black" stroke-width="1.25" stroke-linecap="round" stroke-linejoin="round"/>
<path d="M11.2085 9.62484L12.9168 7.9165" stroke="black" stroke-width="1.25" stroke-linecap="round" stroke-linejoin="round"/>
<path d="M5.33333 16.6667C4.11512 15.6985 3.22826 14.3752 2.79565 12.8804C2.36304 11.3856 2.4061 9.79329 2.91887 8.32405C3.43164 6.85482 4.38873 5.58147 5.65749 4.68046C6.92625 3.77945 8.44386 3.29541 10 3.29541C11.5561 3.29541 13.0738 3.77945 14.3425 4.68046C15.6113 5.58147 16.5684 6.85482 17.0811 8.32405C17.5939 9.79329 17.637 11.3856 17.2044 12.8804C16.7717 14.3752 15.8849 15.6985 14.6667 16.6667H5.33333Z" stroke="black" stroke-width="1.25" stroke-linecap="round" stroke-linejoin="round"/>
</svg>