<svg width="20" height="20" viewBox="0 0 20 20" fill="none" xmlns="http://www.w3.org/2000/svg">
<g clip-path="url(#clip0_1_61736)">
<path d="M13 8.59364C13.3299 8.84107 13.5977 9.1619 13.7821 9.53074C13.9665 9.89958 14.0625 10.3063 14.0625 10.7187C14.0625 11.131 13.9665 11.5377 13.7821 11.9066C13.5977 12.2754 13.3299 12.5963 13 12.8437M14.4344 7C14.989 7.44819 15.4363 8.01476 15.7437 8.65822C16.051 9.30167 16.2105 10.0057 16.2105 10.7188C16.2105 11.4319 16.051 12.1359 15.7437 12.7793C15.4363 13.4228 14.989 13.9894 14.4344 14.4376" stroke="black" stroke-width="1.25" stroke-linecap="round" stroke-linejoin="round"/>
<path d="M8.63429 14.8539C8.63429 15.743 7.91356 16.4637 7.0245 16.4637C6.13543 16.4637 5.4147 15.743 5.4147 14.8539M8.63429 14.8539C8.63429 13.9648 7.91356 13.2441 7.0245 13.2441C6.13543 13.2441 5.4147 13.9648 5.4147 14.8539M8.63429 14.8539L10.2441 14.8539V11.6343C10.2441 11.2074 10.0745 10.7979 9.7726 10.496C9.4707 10.1941 9.06124 10.0245 8.63429 10.0245H7.8294M5.4147 14.8539C5.4147 14.8539 4.886 14.8539 3 14.8539L3 10.0245M7.8294 10.0245L4.6098 6H3V10.0245M7.8294 10.0245H3" stroke="black" stroke-width="1.25" stroke-linecap="round" stroke-linejoin="round"/>
</g>
<defs>
<clipPath id="clip0_1_61736">
<rect width="20" height="20" fill="white"/>
</clipPath>
</defs>
</svg>