<svg width="40" height="40" viewBox="0 0 40 40" fill="none" xmlns="http://www.w3.org/2000/svg">
<g clip-path="url(#clip0_4759_54840)">
<path d="M23.7502 18.1517H25.4169C26.301 18.1517 27.1488 18.4952 27.7739 19.1068C28.3991 19.7183 28.7502 20.5477 28.7502 21.4126V26.3039C28.7502 26.9525 29.0136 27.5746 29.4825 28.0332C29.9513 28.4918 30.5872 28.7495 31.2502 28.7495C31.9133 28.7495 32.5492 28.4918 33.018 28.0332C33.4868 27.5746 33.7502 26.9525 33.7502 26.3039V14.8908L28.7502 9.99951" stroke="black" stroke-width="2.51138" stroke-linecap="round" stroke-linejoin="round"/>
<path d="M6.25024 33.7495V9.68701C6.25024 8.77533 6.61899 7.90099 7.27537 7.25633C7.93175 6.61168 8.82199 6.24951 9.75024 6.24951H20.2502C21.1785 6.24951 22.0687 6.61168 22.7251 7.25633C23.3815 7.90099 23.7502 8.77533 23.7502 9.68701V33.7495" stroke="black" stroke-width="2.51138" stroke-linecap="round" stroke-linejoin="round"/>
<path d="M4.99976 33.7495H24.9998" stroke="black" stroke-width="2.51138" stroke-linecap="round" stroke-linejoin="round"/>
<path d="M30.0002 11.25V13.125C30.0002 13.6223 30.1978 14.0992 30.5494 14.4508C30.901 14.8025 31.378 15 31.8752 15H33.7502" stroke="#141414" stroke-width="2.51138" stroke-linecap="round" stroke-linejoin="round"/>
<path d="M6.25024 22.0005H23.7502" stroke="#141414" stroke-width="2.51138" stroke-linecap="round" stroke-linejoin="round"/>
<path d="M14.9235 17.7605C14.2353 17.7605 13.6439 17.6469 13.1495 17.4197C12.655 17.1859 12.2508 16.8818 11.9367 16.5077C11.6227 16.1335 11.3922 15.7259 11.2452 15.2849C11.0982 14.8439 11.0247 14.4129 11.0247 13.9919V13.7714C11.0247 13.3171 11.1015 12.8694 11.2552 12.4284C11.4089 11.9807 11.6394 11.5765 11.9467 11.2157C12.2608 10.8548 12.6517 10.5675 13.1194 10.3537C13.5871 10.1332 14.135 10.0229 14.7631 10.0229C15.438 10.0229 16.0327 10.1466 16.5472 10.3938C17.0684 10.641 17.486 10.9851 17.8 11.4261C18.1141 11.8604 18.2978 12.3649 18.3513 12.9396H16.487C16.447 12.7191 16.3501 12.5219 16.1964 12.3482C16.0427 12.1678 15.8422 12.0275 15.595 11.9273C15.3545 11.8204 15.0772 11.7669 14.7631 11.7669C14.4625 11.7669 14.1952 11.8204 13.9613 11.9273C13.7341 12.0275 13.5404 12.1745 13.38 12.3683C13.2263 12.5554 13.1094 12.7792 13.0292 13.0398C12.949 13.3004 12.9089 13.5844 12.9089 13.8917C12.9089 14.1991 12.9524 14.4864 13.0392 14.7537C13.1261 15.0143 13.253 15.2448 13.4201 15.4452C13.5871 15.639 13.7976 15.7894 14.0515 15.8963C14.3054 16.0032 14.5961 16.0566 14.9235 16.0566C15.3378 16.0566 15.6952 15.9698 15.9959 15.796C16.2966 15.6223 16.5071 15.3918 16.6274 15.1045L16.487 16.207V14.6134H18.1909V16.1168C17.8835 16.6446 17.4459 17.0522 16.8779 17.3395C16.3167 17.6202 15.6652 17.7605 14.9235 17.7605ZM14.723 14.9742V13.6712H18.7923V14.9742H14.723Z" fill="#141414"/>
</g>
<defs>
<clipPath id="clip0_4759_54840">
<rect width="40" height="40" fill="white"/>
</clipPath>
</defs>
</svg>