<svg width="20" height="20" viewBox="0 0 20 20" fill="none" xmlns="http://www.w3.org/2000/svg">
<path d="M2.5 14.1667H1.875C1.875 14.3324 1.94085 14.4914 2.05806 14.6086C2.17527 14.7258 2.33424 14.7917 2.5 14.7917V14.1667ZM2.5 9.16667L1.9197 8.93455C1.89017 9.00837 1.875 9.08716 1.875 9.16667H2.5ZM4.16667 5V4.375C3.9111 4.375 3.68128 4.53059 3.58637 4.76788L4.16667 5ZM11.6667 5L12.1547 4.60957C12.0361 4.46131 11.8565 4.375 11.6667 4.375V5ZM17.5 14.1667V14.7917C17.6658 14.7917 17.8247 14.7258 17.9419 14.6086C18.0592 14.4914 18.125 14.3324 18.125 14.1667H17.5ZM10 5V4.375C9.65482 4.375 9.375 4.65482 9.375 5H10ZM5.625 5.625C5.97018 5.625 6.25 5.34518 6.25 5C6.25 4.65482 5.97018 4.375 5.625 4.375V5.625ZM6.875 14.1667C6.875 14.742 6.40863 15.2083 5.83333 15.2083V16.4583C7.09899 16.4583 8.125 15.4323 8.125 14.1667H6.875ZM5.83333 15.2083C5.25804 15.2083 4.79167 14.742 4.79167 14.1667H3.54167C3.54167 15.4323 4.56768 16.4583 5.83333 16.4583V15.2083ZM4.79167 14.1667C4.79167 13.5914 5.25804 13.125 5.83333 13.125V11.875C4.56768 11.875 3.54167 12.901 3.54167 14.1667H4.79167ZM5.83333 13.125C6.40863 13.125 6.875 13.5914 6.875 14.1667H8.125C8.125 12.901 7.09899 11.875 5.83333 11.875V13.125ZM15.2083 14.1667C15.2083 14.742 14.742 15.2083 14.1667 15.2083V16.4583C15.4323 16.4583 16.4583 15.4323 16.4583 14.1667H15.2083ZM14.1667 15.2083C13.5914 15.2083 13.125 14.742 13.125 14.1667H11.875C11.875 15.4323 12.901 16.4583 14.1667 16.4583V15.2083ZM13.125 14.1667C13.125 13.5914 13.5914 13.125 14.1667 13.125V11.875C12.901 11.875 11.875 12.901 11.875 14.1667H13.125ZM14.1667 13.125C14.742 13.125 15.2083 13.5914 15.2083 14.1667H16.4583C16.4583 12.901 15.4323 11.875 14.1667 11.875V13.125ZM4.16667 13.5417H2.5V14.7917H4.16667V13.5417ZM3.125 14.1667V9.16667H1.875V14.1667H3.125ZM3.0803 9.39879L4.74696 5.23212L3.58637 4.76788L1.9197 8.93455L3.0803 9.39879ZM11.1786 5.39043L14.512 9.5571L15.488 8.77623L12.1547 4.60957L11.1786 5.39043ZM15 9.79167H15.8333V8.54167H15V9.79167ZM15.8333 9.79167C16.1096 9.79167 16.3746 9.90141 16.5699 10.0968L17.4538 9.21288C17.024 8.78311 16.4411 8.54167 15.8333 8.54167V9.79167ZM16.5699 10.0968C16.7653 10.2921 16.875 10.5571 16.875 10.8333H18.125C18.125 10.2255 17.8836 9.64265 17.4538 9.21288L16.5699 10.0968ZM16.875 10.8333V14.1667H18.125V10.8333H16.875ZM17.5 13.5417H15.8333V14.7917H17.5V13.5417ZM12.5 13.5417H7.5V14.7917H12.5V13.5417ZM2.5 9.79167H15V8.54167H2.5V9.79167ZM10.625 9.16667V5H9.375V9.16667H10.625ZM15 8.54167H10V9.79167H15V8.54167ZM10 8.54167H2.5V9.79167H10V8.54167ZM4.16667 5.625H5.625V4.375H4.16667V5.625ZM11.6667 4.375H10V5.625H11.6667V4.375Z" fill="black"/>
<path d="M6.46753 2.34448L11.4363 4.80002" stroke="black" stroke-width="1.23001" stroke-linecap="round" stroke-linejoin="round"/>
</svg>