<svg width="20" height="20" viewBox="0 0 20 20" fill="none" xmlns="http://www.w3.org/2000/svg">
<path d="M12.6459 12.7083H15.1836M16.875 15.2083V4.79167C16.875 3.87119 16.1177 3.125 15.1836 3.125H9.99637C9.52885 3.125 9.08218 3.31568 8.76242 3.65176L3.5825 9.09614C3.17251 9.52706 3.02462 10.1396 3.19376 10.7063L4.67793 15.6786C4.88965 16.3879 5.55029 16.875 6.30062 16.875H15.1836C16.1177 16.875 16.875 16.1288 16.875 15.2083ZM15.1836 6.04167V9.375C15.1836 9.83524 14.8049 10.2083 14.3379 10.2083H7.80325C7.06739 10.2083 6.68259 9.3464 7.17983 8.8119L10.2808 5.47856C10.441 5.30637 10.6671 5.20833 10.9042 5.20833H14.3379C14.8049 5.20833 15.1836 5.58143 15.1836 6.04167Z" stroke="black" stroke-width="1.25" stroke-linecap="round"/>
</svg>