<svg width="20" height="20" viewBox="0 0 20 20" fill="none" xmlns="http://www.w3.org/2000/svg">
<path d="M9.99976 17.5C14.1419 17.5 17.4998 14.1421 17.4998 10C17.4998 5.85786 14.1419 2.5 9.99976 2.5C5.85762 2.5 2.49976 5.85786 2.49976 10C2.49976 14.1421 5.85762 17.5 9.99976 17.5Z" stroke="black" stroke-width="1.25" stroke-linecap="round" stroke-linejoin="round"/>
<path d="M9.99992 11.6673C10.9204 11.6673 11.6666 10.9211 11.6666 10.0007C11.6666 9.08018 10.9204 8.33398 9.99992 8.33398C9.07944 8.33398 8.33325 9.08018 8.33325 10.0007C8.33325 10.9211 9.07944 11.6673 9.99992 11.6673Z" stroke="black" stroke-width="1.25" stroke-linecap="round" stroke-linejoin="round"/>
<path d="M9.99976 11.6665V17.4998" stroke="black" stroke-width="1.25" stroke-linecap="round" stroke-linejoin="round"/>
<path d="M8.33325 10.0007L2.70825 8.33398" stroke="black" stroke-width="1.25" stroke-linecap="round" stroke-linejoin="round"/>
<path d="M11.6665 10.0007L17.2915 8.33398" stroke="black" stroke-width="1.25" stroke-linecap="round" stroke-linejoin="round"/>
</svg>